# xmcd
#
# Track frame offsets:
#	150
#	12415
#	24526
#	35000
#	49543
#	62699
#	76948
#	89443
#	103734
#	116450
#	129730
#	142781
#	156870
#	172432
#	187766
#	201532
#	212085
#	225629
#	239979
#	254859
#
# Disc length: 3596 seconds
#
# Revision: 1
# Processed by: cddbd v1.5.2PL0 Copyright (c) Steve Scherf et al.
# Submitted via: audiograbber 1.83.01
#
DISCID=260e0a14
DTITLE=—борник - 101 Songs That Won World War II CD3 -  Wish Me Luck
DYEAR=1900
DGENRE=
TTITLE0=Flanagan and Allen - The Siegfried Line
TTITLE1=George Formby - Mr Wu's an air raid Warden Now
TTITLE2=Al Bowlly - Its A lovelly Day tomorrow
TTITLE3=Vera Lynn - The london I love
TTITLE4=Glenn Miller - Bugle call Rag
TTITLE5=The Andrews Sisters - Tuxedo Junction
TTITLE6=Dick Haymes - Love Letters
TTITLE7=Ethel Merman - Marching ThroughBerlin
TTITLE8=Leslie "Hutch" Hutchinson - It Could Happen To you
TTITLE9=The Andrews Sisters - DontS sit Under The Apple Tree
TTITLE10=Joe Loss - Somewhere in France With You
TTITLE11=Marion Mann - Fools Rush In
TTITLE12=Tex Beneke and The Modernaires - Chattanooga Choo Choo
TTITLE13=Tony Martin - The lastTime I Saw Parisi
TTITLE14=Anne Shelton - My Devotion
TTITLE15=Irving Berlin - This Is The Army Mr Jones
TTITLE16=Mildred Bailey - Dam That Dream
TTITLE17=Frank Sinatra - I Only Have Eyes For You
TTITLE18=Tommy Dorsey - On The Sunny Side Of The Street
TTITLE19=Johnny Mercer - G.I. Jive
EXTD=
EXTT0=
EXTT1=
EXTT2=
EXTT3=
EXTT4=
EXTT5=
EXTT6=
EXTT7=
EXTT8=
EXTT9=
EXTT10=
EXTT11=
EXTT12=
EXTT13=
EXTT14=
EXTT15=
EXTT16=
EXTT17=
EXTT18=
EXTT19=
PLAYORDER=
